<svg width="319" height="316" viewBox="0 0 319 316" fill="none" xmlns="http://www.w3.org/2000/svg">
<path fill-rule="evenodd" clip-rule="evenodd" d="M62 92C62 75.4315 75.4315 62 92 62H225C241.569 62 255 75.4315 255 92V211.42H194.068L165.561 192.115C166.907 189.479 167.666 186.495 167.666 183.333C167.666 172.656 159.01 164 148.333 164C137.656 164 129 172.656 129 183.333C129 194.01 137.656 202.666 148.333 202.666C151.811 202.666 155.075 201.747 157.895 200.139L190.711 222.364L191.011 221.921V222.364H255V225C255 241.569 241.569 255 225 255H92C75.4315 255 62 241.569 62 225V103.943H123.332L151.839 123.249C150.493 125.884 149.734 128.869 149.734 132.031C149.734 142.708 158.39 151.364 169.067 151.364C179.744 151.364 188.4 142.708 188.4 132.031C188.4 121.353 179.744 112.698 169.067 112.698C165.589 112.698 162.325 113.616 159.505 115.224L126.689 93L126.389 93.443V93H62V92Z" fill="black"/>
<path fill-rule="evenodd" clip-rule="evenodd" d="M116.5 26.5H83V1H77V26.5H69C45.5279 26.5 26.5 45.5279 26.5 69V77H1.00001V83H26.5V116.5H1.00001V122.5H26.5V156H1L1 162H26.5V195.5H1L1 201.5H26.5V235H1L1 241H26.5V249C26.5 272.472 45.5279 291.5 69 291.5H77V314.5H83V291.5H116.5V314.5H122.5V291.5H156V314.5H162V291.5H195.5V314.5H201.5V291.5H235V314.5H241V291.5H249C272.472 291.5 291.5 272.472 291.5 249V241H317.5V235H291.5V201.5H317.5V195.5H291.5V162H317.5V156H291.5V122.5H317.5V116.5H291.5V83H317.5V77H291.5V69C291.5 45.5279 272.472 26.5 249 26.5H241V1H235V26.5H201.5V1H195.5V26.5H162V1H156V26.5H122.5V1H116.5V26.5ZM69 31.5C48.2893 31.5 31.5 48.2893 31.5 69V249C31.5 269.711 48.2893 286.5 69 286.5H249C269.711 286.5 286.5 269.711 286.5 249V69C286.5 48.2893 269.711 31.5 249 31.5H69Z" fill="black" stroke="black" stroke-width="2"/>
</svg>
