<svg width="620" height="488" viewBox="0 0 620 488" fill="none" xmlns="http://www.w3.org/2000/svg">
<path d="M538.5 269V268.5H538H507C502.858 268.5 499.5 271.858 499.5 276V467C499.5 471.142 502.858 474.5 507 474.5H608C612.142 474.5 615.5 471.142 615.5 467V276C615.5 271.858 612.142 268.5 608 268.5H578H577.5V269V271.5C577.5 275.366 574.366 278.5 570.5 278.5H545.5C541.634 278.5 538.5 275.366 538.5 271.5V269ZM495.5 278C495.5 269.992 501.992 263.5 510 263.5H605C613.008 263.5 619.5 269.992 619.5 278V473C619.5 481.008 613.008 487.5 605 487.5H510C501.992 487.5 495.5 481.008 495.5 473V278Z" fill="black" stroke="black"/>
<mask id="path-2-inside-1" fill="white">
<path fill-rule="evenodd" clip-rule="evenodd" d="M0 25C0 11.1929 11.1929 0 25 0H575C588.807 0 600 11.1929 600 25V256H580V25C580 22.2386 577.761 20 575 20H25C22.2386 20 20 22.2386 20 25V355C20 357.761 22.2386 360 25 360H489V380H325V428H400V458H200V428H275V380H25C11.1929 380 0 368.807 0 355V25Z"/>
</mask>
<path fill-rule="evenodd" clip-rule="evenodd" d="M0 25C0 11.1929 11.1929 0 25 0H575C588.807 0 600 11.1929 600 25V256H580V25C580 22.2386 577.761 20 575 20H25C22.2386 20 20 22.2386 20 25V355C20 357.761 22.2386 360 25 360H489V380H325V428H400V458H200V428H275V380H25C11.1929 380 0 368.807 0 355V25Z" fill="black"/>
<path d="M600 256V257H601V256H600ZM580 256H579V257H580V256ZM489 360H490V359H489V360ZM489 380V381H490V380H489ZM325 380V379H324V380H325ZM325 428H324V429H325V428ZM400 428H401V427H400V428ZM400 458V459H401V458H400ZM200 458H199V459H200V458ZM200 428V427H199V428H200ZM275 428V429H276V428H275ZM275 380H276V379H275V380ZM25 -1C10.6406 -1 -1 10.6406 -1 25H1C1 11.7452 11.7452 1 25 1V-1ZM575 -1H25V1H575V-1ZM601 25C601 10.6406 589.359 -1 575 -1V1C588.255 1 599 11.7452 599 25H601ZM601 256V25H599V256H601ZM580 257H600V255H580V257ZM581 256V25H579V256H581ZM581 25C581 21.6863 578.314 19 575 19V21C577.209 21 579 22.7909 579 25H581ZM575 19H25V21H575V19ZM25 19C21.6863 19 19 21.6863 19 25H21C21 22.7909 22.7909 21 25 21V19ZM19 25V355H21V25H19ZM19 355C19 358.314 21.6863 361 25 361V359C22.7909 359 21 357.209 21 355H19ZM25 361H489V359H25V361ZM490 380V360H488V380H490ZM325 381H489V379H325V381ZM326 428V380H324V428H326ZM400 427H325V429H400V427ZM401 458V428H399V458H401ZM200 459H400V457H200V459ZM199 428V458H201V428H199ZM275 427H200V429H275V427ZM274 380V428H276V380H274ZM25 381H275V379H25V381ZM-1 355C-1 369.359 10.6406 381 25 381V379C11.7452 379 1 368.255 1 355H-1ZM-1 25V355H1V25H-1Z" fill="black" mask="url(#path-2-inside-1)"/>
<path d="M582.599 367.039C581.659 362.34 579.155 358.098 575.495 355.003C571.835 351.909 567.236 350.146 562.446 350H532V366.98H532.059V367.039H557.278C557.371 367.039 557.465 367.039 557.559 367.039C557.653 367.039 557.746 367.039 557.84 367.039C559.964 367.1 561.986 367.967 563.494 369.464C565.003 370.962 565.885 372.977 565.961 375.101C565.965 375.215 565.968 375.329 565.968 375.445C565.968 375.56 565.965 375.675 565.961 375.788V400.941H566.02V401H583V370.518C582.963 369.349 582.829 368.186 582.599 367.039Z" stroke="black" stroke-width="2" stroke-miterlimit="10"/>
<path d="M548.98 383.961H544.92H532V400.941H532.059V401H549.039V388.08V384.02H548.98V383.961Z" stroke="black" stroke-width="2" stroke-miterlimit="10"/>
<circle cx="299.5" cy="182.5" r="103.5" stroke="black" stroke-width="2"/>
<path d="M278.5 213L241 175.5L231 185.5L278.5 233L369.5 142L359.5 132L278.5 213Z" fill="black" stroke="black"/>
</svg>
