<svg width="539" height="383" viewBox="0 0 539 383" fill="none" xmlns="http://www.w3.org/2000/svg">
<path fill-rule="evenodd" clip-rule="evenodd" d="M0 74.7388L0.000488281 75.0295V216.365V337.633L0.0224609 337.635C0.0166016 337.81 0.0117188 337.984 0.00830078 338.159C0.00292969 338.419 0.000488281 338.68 0.000488281 338.942C0.000488281 363.274 23.0376 383 51.4551 383C76.939 383 98.0957 367.137 102.192 346.314L102.706 346.358L130.909 254.568C140.571 264.11 153.848 270 168.5 270C198.047 270 222 246.047 222 216.5V216.365H325V216.5C325 246.047 348.953 270 378.5 270C390.161 270 400.951 266.269 409.741 259.936L436.294 346.358L436.808 346.314C440.904 367.137 462.061 383 487.545 383C515.962 383 539 363.274 539 338.942C539 338.505 538.992 338.069 538.978 337.635L539 337.633V216.365V75.0295V74.7388V74.5935C539 33.3965 499.996 0 451.883 0C403.771 0 364.767 33.3965 364.767 74.5935L364.769 75.0295H174.231L174.232 74.7346L174.233 74.5935C174.233 33.3965 135.229 0 87.1167 0C39.0039 0 0.000488281 33.3965 0.000488281 74.5935L0 74.7388ZM73.7104 96.842C73.7104 86.7122 81.9224 78.5 92.0527 78.5C102.183 78.5 110.395 86.7122 110.395 96.842V109.5H124.5C134.993 109.5 143.5 118.007 143.5 128.5C143.5 138.993 134.993 147.5 124.5 147.5H110.395V160.158C110.395 170.288 102.183 178.5 92.0527 178.5C81.9224 178.5 73.7104 170.288 73.7104 160.158V147.5H60.5C50.0068 147.5 41.5 138.993 41.5 128.5C41.5 118.007 50.0063 109.5 60.5 109.5H73.7104V96.842ZM470 167.5C470 178.27 461.27 187 450.5 187C439.73 187 431 178.27 431 167.5C431 156.73 439.73 148 450.5 148C461.27 148 470 156.73 470 167.5ZM450.5 70C439.73 70 431 78.7305 431 89.5C431 100.27 439.73 109 450.5 109C461.27 109 470 100.27 470 89.5C470 78.7305 461.27 70 450.5 70ZM431 128.5C431 139.27 422.27 148 411.5 148C400.73 148 392 139.27 392 128.5C392 117.73 400.73 109 411.5 109C422.27 109 431 117.73 431 128.5ZM489.5 109C478.73 109 470 117.73 470 128.5C470 139.27 478.73 148 489.5 148C500.27 148 509 139.27 509 128.5C509 117.73 500.27 109 489.5 109Z" fill="black"/>
</svg>
