<svg width="440" height="616" viewBox="0 0 440 616" fill="none" xmlns="http://www.w3.org/2000/svg">
<path d="M238 157C238 166.941 229.941 175 220 175C210.059 175 202 166.941 202 157C202 147.059 210.059 139 220 139C229.941 139 238 147.059 238 157Z" fill="black"/>
<path d="M199.67 129.558C202.758 124.022 209.396 117.5 220.5 117.5C231.604 117.5 238.242 124.022 241.33 129.558C242.461 133.842 246.361 137 251 137C256.523 137 261 132.523 261 127C261 123.992 259.672 121.294 257.57 119.461C251.671 111.056 238.552 98.646 220.5 99C202.603 99.3509 189.427 111.272 183.537 119.369C181.373 121.203 180 123.941 180 127C180 132.523 184.477 137 190 137C194.639 137 198.539 133.842 199.67 129.558Z" fill="black"/>
<path d="M167.67 99.5655C170.758 94.029 189 68.5001 219.5 68.5001C250 68.5001 270.673 92.0682 273.76 97.6047C274.891 101.888 278.792 105.046 283.43 105.046C288.953 105.046 293.43 100.569 293.43 95.0464C293.43 92.0383 292.102 89.3404 290 87.5072C284.101 79.1024 263 50 219.5 50C176 50 157.427 81.2793 151.537 89.3762C149.373 91.2105 148 93.9485 148 97.0072C148 102.53 152.477 107.007 158 107.007C162.639 107.007 166.539 103.849 167.67 99.5655Z" fill="black"/>
<path d="M128.67 71.1643C131.758 65.6277 163 18.5 219.5 18.5C276 18.5 308.67 63.0694 311.757 68.6059C312.888 72.8894 316.789 76.0476 321.427 76.0476C326.95 76.0476 331.427 71.5705 331.427 66.0476C331.427 63.0395 330.099 60.3416 327.997 58.5084C322.098 50.1036 286.5 0 219.5 0C152.5 0 118.427 52.8781 112.537 60.975C110.373 62.8093 109 65.5472 109 68.6059C109 74.1288 112.977 78.6059 118.5 78.6059C123.139 78.6059 127.539 75.4477 128.67 71.1643Z" fill="black"/>
<path fill-rule="evenodd" clip-rule="evenodd" d="M257.998 153.845C261.537 151.526 264.784 148.895 267.683 146H354.5L385 201H352V315.119L439.144 366H440V616H0V366H0.873047L87 316.668V201H55L100 146H171.317C174.216 148.895 177.463 151.526 181.002 153.845C181.187 174.949 198.353 192 219.5 192C240.647 192 257.813 174.949 257.998 153.845ZM186 470C176.611 470 169 477.611 169 487V610H269V487C269 477.611 261.389 470 252 470H186ZM39 415C39 406.716 45.7158 400 54 400H94C102.284 400 109 406.716 109 415V455C109 463.284 102.284 470 94 470H54C45.7158 470 39 463.284 39 455V415ZM147 311C138.716 311 132 317.716 132 326V366C132 374.284 138.716 381 147 381H187C195.284 381 202 374.284 202 366V326C202 317.716 195.284 311 187 311H147ZM132 223C132 214.716 138.716 208 147 208H187C195.284 208 202 214.716 202 223V263C202 271.284 195.284 278 187 278H147C138.716 278 132 271.284 132 263V223ZM240 311C231.716 311 225 317.716 225 326V366C225 374.284 231.716 381 240 381H280C288.284 381 295 374.284 295 366V326C295 317.716 288.284 311 280 311H240ZM225 223C225 214.716 231.716 208 240 208H280C288.284 208 295 214.716 295 223V263C295 271.284 288.284 278 280 278H240C231.716 278 225 271.284 225 263V223ZM346 400C337.716 400 331 406.716 331 415V455C331 463.284 337.716 470 346 470H386C394.284 470 401 463.284 401 455V415C401 406.716 394.284 400 386 400H346Z" fill="black"/>
</svg>
