<svg width="228" height="159" viewBox="0 0 228 159" fill="none" xmlns="http://www.w3.org/2000/svg">
<path fill-rule="evenodd" clip-rule="evenodd" d="M0 107.233C0 135.204 21.0986 157.994 47.4756 158.968V159H181.696C207.27 159 228 137.203 228 110.314C228 87.8977 213.592 69.02 193.982 63.3601C193.989 63.0935 193.995 62.8264 193.999 62.5591C194.003 62.2493 194.005 61.939 194.005 61.6279C194.005 27.5918 167.764 0 135.394 0C115.511 0 97.9414 10.4087 87.3438 26.3264C82.2578 22.9243 76.2227 20.9534 69.748 20.9534C51.6211 20.9534 36.9258 36.4048 36.9258 55.4651C36.9258 56.0085 36.9375 56.5491 36.9609 57.0864C15.708 62.8201 0 83.0977 0 107.233ZM114.399 54C99.9277 54 90.1035 60.2603 87 63.3901V79.2195C88.5078 82.7966 96.0977 89.9512 114.399 89.9512C132.7 89.9512 139.759 82.7966 141 79.2195V63.3901C138.162 60.2603 128.87 54 114.399 54ZM141 100.951V86.4634C139.581 89.5935 132.274 95.8538 114.399 95.8538C96.5234 95.8538 88.6846 89.5935 87 86.4634V100.951C89.2168 103.992 97.7998 110.073 114.399 110.073C130.998 110.073 139.049 103.992 141 100.951ZM141 107.658V121.878C138.694 124.919 130.146 131 114.399 131C98.6514 131 89.5713 124.919 87 121.878V107.658C90.0146 110.789 99.7148 117.049 114.399 117.049C129.083 117.049 138.251 110.789 141 107.658Z" fill="black"/>
</svg>
