<svg width="288" height="218" viewBox="0 0 288 218" fill="none" xmlns="http://www.w3.org/2000/svg">
<path d="M10.5 1.40001C6.8 3.10001 2.5 7.60001 1.1 11.3C0.3 13.2 0 41.1 0 97.8V181.5L2.3 185.4C3.7 187.9 6.2 190.2 8.9 191.7L13.3 194H68.2C98.4 194 123 193.6 122.8 193.2C122.7 192.7 120 188.5 117 183.7L111.5 175.1L72.8 175H34V97.5V20H149.5H265V97.5V175H256.4H247.8L248.5 178C248.9 179.7 250 183.8 250.9 187.3L252.7 193.5L263.6 193.8C276.2 194.1 279.4 193 284.4 186.7L287.5 182.8L287.8 98.9C288 18.2 288 14.7 286.1 10.6C285.1 8.20001 282.5 5.00001 280.4 3.40001L276.7 0.500012L145.1 0.300012C36.7 0.100012 13 0.300012 10.5 1.40001ZM20.8 88.6C24.2 90.9 23.5 96.9 19.8 99C17.3 100.3 16.7 100.3 14.3 99C10.5 96.9 9.8 90.9 13.2 88.6C14.4 87.7 16.1 87 17 87C17.9 87 19.6 87.7 20.8 88.6Z" fill="black"/>
<path d="M115.6 75.0002C109.2 77.0002 104 85.4002 105.6 91.5002C105.9 92.9002 112.7 104.3 120.6 116.7C128.5 129.2 135 139.7 135 140.1C135 140.4 133.2 141.9 131 143.4C125.6 147 123 151.4 123 157C123 166.2 140.4 189.5 152.5 196.6C155.3 198.2 163.3 201.5 170.5 204C182.5 208.2 183.7 208.8 186.5 212.7C190 217.6 191.4 218.4 194.1 217C196.5 215.7 196.5 213.3 194.1 209.5C190.3 203.2 187 201.1 176 197.6C155.2 191 148.6 186.3 138.1 170.6C130.3 159.1 129.5 157.1 131 153.9C131.9 151.9 137.9 147 139.4 147C139.6 147 142.7 151.5 146.2 157C151.6 165.6 152.9 167 155.2 167C158.5 167 159.8 163.9 157.8 160.7C132 120.5 113 89.8002 113 88.2002C113 85.9002 117.4 82.0002 120 82.0002C122.9 82.0002 125.1 85.1002 142.9 113C158.5 137.5 160 139.5 162.6 139.5C167.5 139.5 166.9 136 160.1 125.4C156.7 120.2 154 115 154 114C154 111.5 158.3 108.6 160.8 109.4C161.9 109.8 165.7 114.6 169.4 120.1C175.4 129.1 176.4 130.1 178.8 129.8C183.1 129.3 182.7 126.1 177.1 117.3C174.3 112.9 172 108.4 172 107.2C172 104.6 174.5 102 177.1 102C179.7 102 181.6 104.1 188 114.3C192.2 121 194 123 195.7 123C196.9 123 198.4 122.2 198.9 121.2C200 119.2 199.5 118 194 109.1C190.9 104.1 190.7 103.5 192.1 101.1C193.7 98.2002 196.7 97.4002 199 99.3002C201.2 101 212.3 118.6 216.3 126.7C223.4 141 225.6 150.9 226.6 174C227.3 190.3 227.9 193 230.9 193C234.4 193 234.7 191 233.9 172C232.7 142.3 228.9 131.2 210.3 102.3C204.8 93.7002 201.4 91.0002 196 91.0002C192.6 91.0002 188.1 93.0002 186 95.4002C185.2 96.4002 184.3 96.7002 183.6 96.2002C179.4 92.8002 171.6 94.3002 167.4 99.3002C165.1 102 164.3 102.3 160.1 102.1C156.6 101.9 154.6 102.4 151.9 104.3L148.3 106.7L139.4 92.6002C131.6 80.4002 129.8 78.2002 126 76.2002C121.2 73.8002 120.1 73.7002 115.6 75.0002Z" fill="black"/>
</svg>
