<svg width="130" height="96" viewBox="0 0 130 96" fill="none" xmlns="http://www.w3.org/2000/svg">
<path d="M37 16.5C37 25.6127 29.6127 33 20.5 33C11.3873 33 4 25.6127 4 16.5C4 7.3873 11.3873 0 20.5 0C29.6127 0 37 7.3873 37 16.5Z" fill="black"/>
<path d="M0 92V49H0.0712891C0.826172 41.1436 7.44531 35 15.5 35C23.5547 35 30.1738 41.1436 30.9287 49H31V58.1746L34.5703 62H68V62.0189C71.3562 62.2743 74 65.0784 74 68.5C74 71.9216 71.3562 74.7257 68 74.9811V75H29L28 74.0134L22.2878 67.893L12 57L11 58L28.5 76H31V92H0Z" fill="black"/>
<path d="M34 84C34 82.3431 35.3431 81 37 81H97V91H37C35.3431 91 34 89.6569 34 88V84Z" fill="black"/>
<path d="M52 76H87C87.2718 76 87.531 76.0542 87.7673 76.1525C88.2719 76.3623 88.6721 76.7729 88.8682 77.2845C88.9533 77.5066 89 77.7479 89 78V80H52V76Z" fill="black"/>
<path d="M87.7673 76.1525C88.2719 76.3623 88.6721 76.7729 88.8682 77.2845L89.8455 77.7971L107.462 44.2163L106.474 43.6978C105.251 43.0564 103.74 43.5276 103.098 44.7502L87.8046 73.9034C87.4221 74.6323 87.4352 75.4639 87.7673 76.1525Z" fill="black"/>
<path d="M111.096 47.5667L109.764 47.0394L106.438 52.8468C111.736 54.6346 119.409 61.3898 117.474 71.9297C115.7 81.5943 107.896 85.4403 102.603 85.1828L102.27 91.9241L104.791 91.5461L106.397 91.3946L109.64 95.3117L115.167 92.5441L114.731 87.7251L117.133 85.8883L121.793 87.7337L125.467 82.2188L122.571 78.5941L123.583 75.5874L128.358 75.1552L129.05 68.6146L124.418 67.0904L124.128 63.8777L128.034 60.933L125.542 54.6805L120.477 55.4629L118.624 52.7155L120.474 48.3374L115.002 44.622L111.096 47.5667Z" fill="black"/>
</svg>
