<svg width="128" height="87" viewBox="0 0 128 87" fill="none" xmlns="http://www.w3.org/2000/svg">
<path fill-rule="evenodd" clip-rule="evenodd" d="M6.72474 86.2617C1.19794 82.71 -2.62043 75.0991 2.20276 38.5669C8.23171 -7.0985 38.8792 -2.02454 48.9276 3.55678C50.9372 6.80409 51.7746 8.96897 51.942 9.64549H76.058C76.2254 8.96897 77.0628 6.80409 79.0724 3.55678C89.1208 -2.02454 119.768 -7.0985 125.797 38.5669C130.62 75.0991 126.802 82.71 121.275 86.2617C107.71 90.3208 97.6618 76.6213 93.1401 70.0252C89.5227 64.7483 84.599 63.7673 82.5894 63.9365H45.4106C43.401 63.7673 38.4773 64.7483 34.8599 70.0252C30.3382 76.6213 20.29 90.3208 6.72474 86.2617ZM35.2432 24.5175V19.3514H35.2155C35.0253 18.0219 33.882 17 32.5 17C31.118 17 29.9747 18.0219 29.7845 19.3514H29.7568V24.5175C27.8212 25.2786 26.2786 26.8212 25.5175 28.7568H20.3514V28.7845C19.0219 28.9747 18 30.118 18 31.5C18 32.882 19.0219 34.0253 20.3514 34.2155V34.2432H25.5175C26.2786 36.1788 27.8212 37.7214 29.7568 38.4825V43.6487H29.7845C29.9747 44.9781 31.118 46 32.5 46C33.882 46 35.0253 44.9781 35.2155 43.6487H35.2432V38.4825C37.1788 37.7214 38.7214 36.1788 39.4825 34.2432H44.6487V34.2155C45.9781 34.0253 47 32.882 47 31.5C47 30.118 45.9781 28.9747 44.6487 28.7845V28.7568H39.4825C38.7214 26.8212 37.1788 25.2786 35.2432 24.5175ZM102 21.5C102 23.9853 99.9853 26 97.5 26C95.0147 26 93 23.9853 93 21.5C93 19.0147 95.0147 17 97.5 17C99.9853 17 102 19.0147 102 21.5ZM107.5 37C109.985 37 112 34.9853 112 32.5C112 30.0147 109.985 28 107.5 28C105.015 28 103 30.0147 103 32.5C103 34.9853 105.015 37 107.5 37ZM92 32.5C92 34.9853 89.9853 37 87.5 37C85.0147 37 83 34.9853 83 32.5C83 30.0147 85.0147 28 87.5 28C89.9853 28 92 30.0147 92 32.5ZM97.5 48C99.9853 48 102 45.9853 102 43.5C102 41.0147 99.9853 39 97.5 39C95.0147 39 93 41.0147 93 43.5C93 45.9853 95.0147 48 97.5 48Z" fill="black"/>
</svg>
